HIERARCHY
ROOT hips_JNT
{
    OFFSET 0 0 0
    CHANNELS 6 Xposition Yposition Zposition Zrotation Xrotation Yrotation
    JOINT spine_JNT
    {
        OFFSET -0.000424254 9.31981 2.54342
        CHANNELS 3 Zrotation Xrotation Yrotation
        JOINT spine1_JNT
        {
            OFFSET 0 10.8731 -4.54485e-05
            CHANNELS 3 Zrotation Xrotation Yrotation
            JOINT spine2_JNT
            {
                OFFSET 0 12.4264 -5.95116
                CHANNELS 3 Zrotation Xrotation Yrotation
                JOINT neck_JNT
                {
                    OFFSET 0 13.9797 -1.46048
                    CHANNELS 3 Zrotation Xrotation Yrotation
                    JOINT head_JNT
                    {
                        OFFSET 0 5.8702 2.0915
                        CHANNELS 3 Zrotation Xrotation Yrotation
                        End Site
                        {
                            OFFSET 0 0 0
                        }
                    }
                }
                JOINT l_shoulder_JNT
                {
                    OFFSET 4.39914 12.861 -1.48501
                    CHANNELS 3 Zrotation Xrotation Yrotation
                    JOINT l_arm_JNT
                    {
                        OFFSET 8.75735 -2.31198 -0.0490516
                        CHANNELS 3 Zrotation Xrotation Yrotation
                        JOINT l_forearm_JNT
                        {
                            OFFSET 26.9001 -4.76837e-05 1.2666e-05
                            CHANNELS 3 Zrotation Xrotation Yrotation
                            JOINT l_hand_JNT
                            {
                                OFFSET 23.0148 -4.76837e-05 -3.72529e-06
                                CHANNELS 3 Zrotation Xrotation Yrotation
                                JOINT l_handThumb1_JNT
                                {
                                    OFFSET 3.63 -0.779998 2.13
                                    CHANNELS 3 Zrotation Xrotation Yrotation
                                    JOINT l_handThumb2_JNT
                                    {
                                        OFFSET 3.55114 -2.11837 2.24006
                                        CHANNELS 3 Zrotation Xrotation Yrotation
                                        JOINT l_handThumb3_JNT
                                        {
                                            OFFSET 2.15911 -1.11631 0.963467
                                            CHANNELS 3 Zrotation Xrotation Yrotation
                                            End Site
                                            {
                                                OFFSET 0 0 0
                                            }
                                        }
                                    }
                                }
                                JOINT l_handIndex1_JNT
                                {
                                    OFFSET 10.5149 -0.0410199 2.19757
                                    CHANNELS 3 Zrotation Xrotation Yrotation
                                    JOINT l_handIndex2_JNT
                                    {
                                        OFFSET 2.75183 -0.102866 -0.139054
                                        CHANNELS 3 Zrotation Xrotation Yrotation
                                        JOINT l_handIndex3_JNT
                                        {
                                            OFFSET 2.35301 -0.0733972 -0.0904871
                                            CHANNELS 3 Zrotation Xrotation Yrotation
                                            End Site
                                            {
                                                OFFSET 0 0 0
                                            }
                                        }
                                    }
                                }
                                JOINT l_handMiddle1_JNT
                                {
                                    OFFSET 10.0671 0.139201 0.0595726
                                    CHANNELS 3 Zrotation Xrotation Yrotation
                                    JOINT l_handMiddle2_JNT
                                    {
                                        OFFSET 3.90903 -0.288403 -0.119066
                                        CHANNELS 3 Zrotation Xrotation Yrotation
                                        JOINT l_handMiddle3_JNT
                                        {
                                            OFFSET 2.3284 -0.0191092 -0.0594396
                                            CHANNELS 3 Zrotation Xrotation Yrotation
                                            End Site
                                            {
                                                OFFSET 0 0 0
                                            }
                                        }
                                    }
                                }
                                JOINT l_handRing1_JNT
                                {
                                    OFFSET 9.46811 0.132239 -1.80983
                                    CHANNELS 3 Zrotation Xrotation Yrotation
                                    JOINT l_handRing2_JNT
                                    {
                                        OFFSET 3.28153 -0.224054 -0.0339366
                                        CHANNELS 3 Zrotation Xrotation Yrotation
                                        JOINT l_handRing3_JNT
                                        {
                                            OFFSET 2.245 -0.0702143 -0.00838935
                                            CHANNELS 3 Zrotation Xrotation Yrotation
                                            End Site
                                            {
                                                OFFSET 0 0 0
                                            }
                                        }
                                    }
                                }
                                JOINT l_handPinky1_JNT
                                {
                                    OFFSET 8.49077 -0.0777721 -3.58415
                                    CHANNELS 3 Zrotation Xrotation Yrotation
                                    JOINT l_handPinky2_JNT
                                    {
                                        OFFSET 2.53217 -0.0730753 -0.0170402
                                        CHANNELS 3 Zrotation Xrotation Yrotation
                                        JOINT l_handPinky3_JNT
                                        {
                                            OFFSET 1.95121 0.0251174 0.0170089
                                            CHANNELS 3 Zrotation Xrotation Yrotation
                                            End Site
                                            {
                                                OFFSET 0 0 0
                                            }
                                        }
                                    }
                                }
                            }
                        }
                    }
                }
                JOINT r_shoulder_JNT
                {
                    OFFSET -4.39782 12.8606 -1.48501
                    CHANNELS 3 Zrotation Xrotation Yrotation
                    JOINT r_arm_JNT
                    {
                        OFFSET -8.75732 -2.312 -0.0490502
                        CHANNELS 3 Zrotation Xrotation Yrotation
                        JOINT r_forearm_JNT
                        {
                            OFFSET -26.9 0 1.00583e-05
                            CHANNELS 3 Zrotation Xrotation Yrotation
                            JOINT r_hand_JNT
                            {
                                OFFSET -23.0149 0 0
                                CHANNELS 3 Zrotation Xrotation Yrotation
                                JOINT r_handThumb1_JNT
                                {
                                    OFFSET -3.63 -0.779998 2.13
                                    CHANNELS 3 Zrotation Xrotation Yrotation
                                    JOINT r_handThumb2_JNT
                                    {
                                        OFFSET -3.5512 -2.118 2.24006
                                        CHANNELS 3 Zrotation Xrotation Yrotation
                                        JOINT r_handThumb3_JNT
                                        {
                                            OFFSET -2.1591 -1.116 0.963467
                                            CHANNELS 3 Zrotation Xrotation Yrotation
                                            End Site
                                            {
                                                OFFSET 0 0 0
                                            }
                                        }
                                    }
                                }
                                JOINT r_handIndex1_JNT
                                {
                                    OFFSET -10.5149 -0.0409961 2.19756
                                    CHANNELS 3 Zrotation Xrotation Yrotation
                                    JOINT r_handIndex2_JNT
                                    {
                                        OFFSET -2.7518 -0.102997 -0.13905
                                        CHANNELS 3 Zrotation Xrotation Yrotation
                                        JOINT r_handIndex3_JNT
                                        {
                                            OFFSET -2.353 -0.0730038 -0.0904899
                                            CHANNELS 3 Zrotation Xrotation Yrotation
                                            End Site
                                            {
                                                OFFSET 0 0 0
                                            }
                                        }
                                    }
                                }
                                JOINT r_handMiddle1_JNT
                                {
                                    OFFSET -10.0671 0.139999 0.05957
                                    CHANNELS 3 Zrotation Xrotation Yrotation
                                    JOINT r_handMiddle2_JNT
                                    {
                                        OFFSET -3.9091 -0.288999 -0.11907
                                        CHANNELS 3 Zrotation Xrotation Yrotation
                                        JOINT r_handMiddle3_JNT
                                        {
                                            OFFSET -2.3284 -0.019002 -0.05944
                                            CHANNELS 3 Zrotation Xrotation Yrotation
                                            End Site
                                            {
                                                OFFSET 0 0 0
                                            }
                                        }
                                    }
                                }
                                JOINT r_handRing1_JNT
                                {
                                    OFFSET -9.4681 0.133002 -1.80983
                                    CHANNELS 3 Zrotation Xrotation Yrotation
                                    JOINT r_handRing2_JNT
                                    {
                                        OFFSET -3.2816 -0.224996 -0.0339396
                                        CHANNELS 3 Zrotation Xrotation Yrotation
                                        JOINT r_handRing3_JNT
                                        {
                                            OFFSET -2.245 -0.0699997 -0.0083901
                                            CHANNELS 3 Zrotation Xrotation Yrotation
                                            End Site
                                            {
                                                OFFSET 0 0 0
                                            }
                                        }
                                    }
                                }
                                JOINT r_handPinky1_JNT
                                {
                                    OFFSET -8.4908 -0.0769973 -3.58415
                                    CHANNELS 3 Zrotation Xrotation Yrotation
                                    JOINT r_handPinky2_JNT
                                    {
                                        OFFSET -2.5322 -0.0740051 -0.0170402
                                        CHANNELS 3 Zrotation Xrotation Yrotation
                                        JOINT r_handPinky3_JNT
                                        {
                                            OFFSET -1.9512 0.0259995 0.0170097
                                            CHANNELS 3 Zrotation Xrotation Yrotation
                                            End Site
                                            {
                                                OFFSET 0 0 0
                                            }
                                        }
                                    }
                                }
                            }
                        }
                    }
                }
            }
        }
    }
    JOINT l_upleg_JNT
    {
        OFFSET 10.0614 -5.18575 -0.706233
        CHANNELS 3 Zrotation Xrotation Yrotation
        JOINT l_leg_JNT
        {
            OFFSET -0.348572 -45.5824 -0.819168
            CHANNELS 3 Zrotation Xrotation Yrotation
            JOINT l_foot_JNT
            {
                OFFSET 0.349145 -42.3325 -1.70849
                CHANNELS 3 Zrotation Xrotation Yrotation
                JOINT l_toebase_JNT
                {
                    OFFSET 0.0702709 -8.12666 12.8887
                    CHANNELS 3 Zrotation Xrotation Yrotation
                    End Site
                    {
                        OFFSET 0 0 0
                    }
                }
            }
        }
    }
    JOINT r_upleg_JNT
    {
        OFFSET -10.061 -5.18577 -0.706233
        CHANNELS 3 Zrotation Xrotation Yrotation
        JOINT r_leg_JNT
        {
            OFFSET 0.34858 -45.5824 -0.819165
            CHANNELS 3 Zrotation Xrotation Yrotation
            JOINT r_foot_JNT
            {
                OFFSET -0.34918 -42.3325 -1.70849
                CHANNELS 3 Zrotation Xrotation Yrotation
                JOINT r_toebase_JNT
                {
                    OFFSET -0.0702001 -8.12666 12.8887
                    CHANNELS 3 Zrotation Xrotation Yrotation
                    End Site
                    {
                        OFFSET 0 0 0
                    }
                }
            }
        }
    }
}
MOTION
Frames: 8
Frame Time: 0.033333
0.0426373 100.268 -0.805778 -1.35616 0.758167 3.44317 2.79575 -0.000454407 0.068528 1.56572 2.01293 0.58148 2.20113e-07 4.33557e-07 0 1.98583 16.2591 -1.55918 -3.18647 13.698 0.356082 -1.28066e-06 -1.73423e-07 0 -60.6453 -13.7032 20.3769 8.05602 -4.88915 -62.4536 3.41509e-06 1.70755e-06 0.0559529 4.10661 20.7048 -22.2077 -0 0 0 -15.9398 -0.220338 1.57367 -25.2039 7.28022 1.63131 -32.5157 9.16061 2.67617 -21.5724 6.29444 1.20006 -29.4232 5.61137 1.47456 -37.9051 7.00489 2.40862 -25.1985 4.86706 1.08929 -33.5133 -3.16027 -0.951202 -43.1152 -3.9099 -1.54354 -28.718 -2.75094 -0.70554 -36.8424 -6.83843 -2.28008 -47.5047 -8.38875 -3.69644 -31.5394 -5.97239 -1.68929 -1.28066e-06 -1.73423e-07 0 75.0538 20.7982 21.9555 13.9713 10.1251 71.733 3.41509e-06 -1.52667e-13 0 -4.10661 20.7048 22.2077 -0 0 0 14.996 0.19516 1.4825 23.6967 6.87487 -1.44398 30.5603 8.67268 -2.37359 20.2855 5.93795 -1.06311 27.6707 5.30628 -1.30744 35.6403 6.6472 -2.13872 23.6997 4.59605 -0.964278 31.5251 -2.99311 0.846723 40.5549 -3.72 1.37456 27.015 -2.60072 0.625573 34.6419 -6.48606 2.02518 44.6557 -8.00159 3.29065 29.6594 -5.65209 1.49669 -11.8478 -42.1609 -8.31427 94.0832 75.029 -79.0103 -4.42895e-06 -9.685e-06 0 2.77476e-06 2.82813e-06 0 10.037 5.61413 -0.189746 0.460631 -1.2839 -0.298707 -8.67318 -3.0744 -0.213062 -5.33609e-07 -1.94767e-06 0 
0.27079 100.55 -2.27721 1.0964 -0.0895772 3.71313 1.68261 -0.00100337 0.0395647 0.364993 2.00499 1.30444 -4.20217e-07 -2.13443e-07 0 0.456466 15.9412 -0.351659 -0.272461 14.8782 0 -4.20217e-07 -2.13443e-07 0 -58.8423 -18.8902 17.2245 3.16651 -1.61724 -54.1014 -4.26887e-07 1.70755e-06 0 4.10661 20.7048 -22.2077 -0 0 0 -15.9574 -0.220822 1.57566 -25.232 7.28773 1.63275 -32.5522 9.1696 2.68201 -21.5964 6.30106 1.20267 -29.4559 5.61701 1.47668 -37.9474 7.01145 2.41284 -25.2264 4.87208 1.09073 -33.5504 -3.16335 -0.954488 -43.1629 -3.91337 -1.54759 -28.7498 -2.75372 -0.70554 -36.8834 -6.8449 -2.28453 -47.5578 -8.39577 -3.70448 -31.5745 -5.9783 -1.69207 -4.20217e-07 -2.13443e-07 0 72.3061 22.6849 20.7749 13.1193 10.5613 77.5831 -1.70755e-06 6.83019e-06 0 -4.10661 20.7048 22.2077 -0 0 0 14.8889 0.192396 1.47296 23.5257 6.82854 -1.42324 30.3386 8.61663 -2.33972 20.1395 5.89728 -1.04753 27.4718 5.27132 -1.28875 35.3833 6.60593 -2.10924 23.5296 4.56507 -0.949555 31.2993 -2.97389 0.83462 40.2642 -3.69796 1.35506 26.8216 -2.58352 0.616753 34.3922 -6.44544 1.99598 44.3326 -7.95637 3.24634 29.4461 -5.61533 1.47721 -12.4599 -33.4588 -10.6544 45.663 72.5801 -34.3579 -1.06722e-06 -7.01695e-06 0 5.33608e-07 -1.60083e-07 0 7.26673 5.87541 0.29074 0.46705 -1.2826 0.0395647 -8.86126 -4.14944 -0.407344 4.26887e-07 -2.66804e-08 0 
0.71087 100.954 -4.24694 3.69674 -0.915055 4.10962 0.594787 0.00142183 0 -0.996173 1.96167 2.27354 -2.13443e-07 -1.20062e-07 0 -0.899529 15.2804 0.70554 2.67395 16.5687 -0.362616 -2.13443e-07 -1.20062e-07 0 -59.9477 -15.4158 13.3163 5.00229 -2.11033 -45.7256 -0 0 0 4.10661 20.7048 -22.2077 -0 0 0 -15.9931 -0.221807 1.57765 -25.2892 7.303 1.64088 -32.6265 9.1879 2.69366 -21.6452 6.31451 1.20786 -29.5224 5.62848 1.48408 -38.0333 7.0248 2.42352 -25.2833 4.88229 1.09717 -33.6258 -3.16961 -0.961026 -43.2601 -3.92041 -1.55566 -28.8144 -2.75937 -0.709964 -36.9669 -6.85807 -2.29547 -47.666 -8.41005 -3.72051 -31.6458 -5.99032 -1.69899 -2.13443e-07 -1.20062e-07 0 70.0049 24.0785 19.0504 11.6882 10.3658 83.0946 -3.41509e-06 5.08889e-14 0 -4.10661 20.7048 22.2077 -0 0 0 14.8252 0.190763 1.46657 23.4241 6.80099 -1.41109 30.2069 8.58328 -2.32057 20.0527 5.8731 -1.03928 27.3536 5.25052 -1.2796 35.2307 6.58134 -2.0921 23.4286 4.54665 -0.944596 31.1652 -2.96246 0.825189 40.0916 -3.68482 1.34462 26.7068 -2.57328 0.611656 34.2439 -6.42125 1.98024 44.1406 -7.92939 3.21922 29.3194 -5.59345 1.46444 -12.4672 -25.0232 -12.2186 18.9125 61.0037 -11.2075 2.66804e-06 1.38471e-05 0 2.13443e-07 -3.41509e-06 0 4.2502 5.70302 -0.303902 0.476041 -1.28077 0.131221 -8.33754 -3.0209 -0.298707 -8.53774e-07 -4.00206e-07 0 
1.29193 101.34 -6.36727 5.51217 -1.78576 4.71866 -0.00649828 0.00521397 0 -2.0127 1.8982 3.1051 2.13443e-07 -2.66804e-08 0 -1.48863 14.6652 1.16162 4.39601 18.3924 -0.670269 2.13443e-07 -2.66804e-08 0 -61.0316 -12.8917 10.2849 6.26043 -2.25096 -39.5208 7.25708e-06 0 0 4.10661 20.7048 -22.2077 -0 0 0 -16.0359 -0.222987 1.5826 -25.3575 7.32124 1.64944 -32.7152 9.20973 2.70902 -21.7036 6.33058 1.21497 -29.6018 5.64216 1.49197 -38.136 7.04073 2.43609 -25.3512 4.89448 1.10215 -33.7159 -3.17709 -0.963466 -43.3761 -3.92881 -1.56319 -28.8915 -2.76611 -0.71436 -37.0667 -6.87377 -2.30704 -47.7952 -8.42706 -3.73939 -31.7311 -6.00467 -1.70773 2.13443e-07 -2.66804e-08 0 68.6656 25.2781 17.0508 10.1274 9.52441 86.4677 -3.4151e-06 2.39057e-05 0 -4.10661 20.7048 22.2077 -0 0 0 14.8392 0.191122 1.46711 23.4465 6.80705 -1.41386 30.2359 8.59062 -2.32428 20.0718 5.87842 -1.03928 27.3796 5.2551 -1.28083 35.2643 6.58675 -2.09509 23.4508 4.55071 -0.945425 31.1947 -2.96498 0.826137 40.1295 -3.68772 1.34869 26.732 -2.57553 0.616753 34.2766 -6.42657 1.983 44.1828 -7.93533 3.2253 29.3473 -5.59827 1.46551 -10.9317 -16.2485 -12.8643 6.92238 45.4933 -2.8739 0.290767 -1.12228 0.220287 -1.06722e-06 -6.88292e-15 0 1.96103 5.47193 -1.10993 0.482354 -1.27946 0.240663 -7.73622 -1.82818 0.0969133 0.00434685 -0.0288981 0.30901 
1.82929 101.554 -8.26735 6.34162 -2.63498 5.59655 -0.164164 0.00727276 0 -2.49411 1.86049 3.44112 2.13443e-07 0 0 -1.3071 14.2741 1.0149 4.46516 19.9291 -0.741245 2.13443e-07 0 0 -62.4059 -12.238 7.9474 7.97534 -2.56157 -35.5643 2.13443e-07 -4.26887e-07 0 4.10661 20.7048 -22.2077 -0 0 0 -16.0554 -0.223527 1.58458 -25.3888 7.32957 1.65228 -32.7557 9.21971 2.71537 -21.7302 6.33792 1.21819 -29.6381 5.64842 1.49407 -38.183 7.048 2.44154 -25.3823 4.90005 1.10357 -33.7571 -3.1805 -0.967519 -43.4291 -3.93265 -1.56619 -28.9268 -2.76919 -0.716548 -37.1123 -6.88094 -2.31178 -47.8543 -8.43482 -3.74859 -31.77 -6.01122 -1.71322 2.13443e-07 0 0 68.4523 26.5406 15.0994 8.95315 8.54207 87.2975 -1.70755e-06 -3.41509e-06 0 -4.10661 20.7048 22.2077 -0 0 0 14.9361 0.193613 1.47721 23.6011 6.84899 -1.4342 30.4364 8.64137 -2.35472 20.2039 5.91523 -1.05572 27.5595 5.28675 -1.29601 35.4967 6.62415 -2.12329 23.6047 4.57874 -0.959395 31.3989 -2.98238 0.839296 40.3925 -3.70769 1.36255 26.9069 -2.59111 0.620549 34.5024 -6.46337 2.00849 44.4751 -7.97635 3.26534 29.5402 -5.63155 1.48672 -8.65817 -8.76194 -12.8476 1.19796 32.4305 -0.403482 0.637348 -2.25098 0.240663 -0.191824 -0.935226 -0.593471 0.747924 3.93895 -1.61103 0.4852 1.60559 0.288035 -7.28036 -2.21866 -0.515861 0.00222873 -0.806884 0.311533 
2.08535 101.488 -9.69963 6.74892 -3.27555 6.67707 -0.376824 0.00735209 0 -2.67975 1.8549 3.3421 -2.00103e-07 2.40124e-07 0 -0.699085 14.0984 0.546795 3.47396 20.8236 -0.606516 -2.00103e-07 2.40124e-07 0 -63.7094 -12.9583 5.59249 10.5628 -3.16104 -33.2396 3.62854e-06 -1.70755e-06 0 4.10661 20.7048 -22.2077 -0 0 0 -16.0016 -0.222041 1.57913 -25.3027 7.30662 1.64135 -32.644 9.19223 2.69714 -21.6568 6.3177 1.20916 -29.5381 5.63119 1.48514 -38.0537 7.02796 2.42611 -25.2968 4.88471 1.09431 -33.6437 -3.1711 -0.958579 -43.2831 -3.92208 -1.55667 -28.8297 -2.7607 -0.707756 -36.9867 -6.86118 -2.29684 -47.6916 -8.41342 -3.72429 -31.6627 -5.99317 -1.70176 -2.00103e-07 2.40124e-07 0 69.414 27.8593 13.1674 8.18208 7.67404 86.318 1.02453e-05 1.02453e-05 0 -4.10661 20.7048 22.2077 -0 0 0 15.1082 0.198074 1.49459 23.8757 6.9233 -1.46657 30.7925 8.7312 -2.4083 20.4384 5.98048 -1.07918 27.8789 5.34281 -1.32469 35.9093 6.69027 -2.16997 23.8778 4.62843 -0.977979 31.7614 -3.01317 0.857744 40.8591 -3.74297 1.39435 27.2174 -2.6187 0.633036 34.9033 -6.52845 2.05435 44.9941 -8.04864 3.33789 29.8828 -5.69048 1.52004 -6.59322 -2.27652 -9.78794 -0.215549 22.1459 0.0395647 0.276556 -3.3291 0.104678 -0.0818584 -3.70302 -0.40926 0.234514 1.09893 -1.0017 0.482916 7.3387 0.0791294 -7.1088 -4.24831 -2.26975 0.00222942 -0.806795 0.311533 
1.86949 101.121 -10.6026 7.36697 -3.52566 7.856 -1.11782 0.00832276 0 -2.90927 1.8542 3.13945 2.13443e-07 -2.66804e-08 0 -0.0632021 14.0577 0 2.47878 21.0445 -0.435212 2.13443e-07 -2.66804e-08 0 -63.924 -13.5868 2.4835 13.3883 -3.77482 -31.3659 -0 0 0 4.10661 20.7048 -22.2077 -0 0 0 -15.8203 -0.217069 1.56219 -25.013 7.22919 1.60568 -32.268 9.09943 2.63757 -21.4094 6.2495 1.18364 -29.2013 5.57305 1.45155 -37.6183 6.96022 2.37359 -25.0088 4.83294 1.07264 -33.2617 -3.13932 -0.938778 -42.7911 -3.88629 -1.52261 -28.5025 -2.73206 -0.69323 -36.5637 -6.79438 -2.24618 -47.1439 -8.34087 -3.64419 -31.3014 -5.9322 -1.66314 2.13443e-07 -2.66804e-08 0 71.4971 28.9676 10.9241 7.53258 6.8246 84.3392 3.41509e-06 5.09883e-14 0.0559529 -4.10661 20.7048 22.2077 -0 0 0 15.3538 0.204528 1.51849 24.2677 7.0291 -1.51281 31.3009 8.85884 -2.48665 20.7731 6.07345 -1.11556 28.3348 5.42253 -1.37057 36.4985 6.78404 -2.23885 24.2678 4.69916 -1.00948 32.2787 -3.05691 0.887345 41.5253 -3.79288 1.43855 27.6605 -2.65794 0.656107 35.4757 -6.62078 2.11887 45.7351 -8.1507 3.44248 30.3719 -5.77424 1.56869 -5.4769 3.37663 -5.88063 0.0614089 13.6641 0.0884693 -0.903137 -4.25448 -0.563711 -0.0492488 -2.49381 -0.358274 0.112135 -1.90911 1.23858 0.47718 13.3168 -0.314035 -7.25347 -6.52237 -5.61917 0.0022282 -0.807093 0.306467 
1.1319 100.537 -11.0812 8.22416 -3.31613 9.14529 -2.34483 0.00810127 0 -3.25558 1.85115 2.9505 4.26887e-07 -1.33402e-08 0 0.296901 13.9755 -0.213062 2.02492 20.9491 -0.344917 4.26887e-07 -1.33402e-08 0 -62.0821 -12.5719 -1.69346 15.8125 -4.05734 -28.6182 2.09175e-05 8.75118e-06 0.0559529 4.10661 20.7048 -22.2077 -0 0 0 -15.4693 -0.2076 1.52979 -24.4522 7.07877 1.53541 -31.5403 8.91866 2.5229 -20.9307 6.11712 1.1302 -28.5494 5.45993 1.38929 -36.7757 6.82791 2.27217 -24.4512 4.73237 1.02792 -32.5221 -3.0774 -0.89961 -41.8388 -3.81619 -1.46016 -27.869 -2.67636 -0.665582 -35.7451 -6.664 -2.15076 -46.0839 -8.19826 -3.49126 -30.602 -5.8135 -1.59197 4.26887e-07 -1.33402e-08 0 74.2029 29.578 8.21579 6.69871 5.76768 81.4411 -5.12264e-06 6.83019e-06 0 -4.10661 20.7048 22.2077 -0 0 0 15.6846 0.213382 1.54911 24.796 7.17109 -1.57963 31.9864 9.02968 -2.59298 21.2242 6.19835 -1.16229 28.9491 5.52938 -1.43037 37.2924 6.90922 -2.33469 24.7931 4.7941 -1.05349 32.9756 -3.11543 0.922802 42.4228 -3.8593 1.49825 28.2575 -2.71056 0.685281 36.247 -6.74411 2.21 46.7338 -8.28604 3.58528 31.0309 -5.8864 1.6361 -4.94425 8.05471 -4.24327 0.0374362 5.96224 0.298707 -2.03563 -5.12866 -0.92872 -0 0 0 0.542061 -4.86431 4.88609 0.479357 18.86 -0.621808 -7.72846 -8.53319 -10.6372 0.00222832 -0.807257 0.30901 
